<svg width="32" height="32" viewBox="0 0 248 248" fill="none" xmlns="http://www.w3.org/2000/svg">
<rect width="248" height="248" fill="#FA5C00"/>
<path d="M27.5925 142L26.3125 131.76H31.6245C32.9472 131.76 33.7792 131.589 34.1205 131.248C34.5045 130.864 34.6965 130.395 34.6965 129.84V112.24H29.3845V102H47.4965V131.44C47.4965 134.896 46.6432 137.52 44.9365 139.312C43.2298 141.104 40.7765 142 37.5765 142H27.5925ZM55.638 138.8C52.9927 135.984 51.67 131.717 51.67 126C51.67 120.283 52.9927 116.037 55.638 113.264C58.326 110.448 62.6567 109.04 68.63 109.04C74.6033 109.04 78.9127 110.448 81.558 113.264C84.246 116.037 85.59 120.283 85.59 126C85.59 131.717 84.246 135.984 81.558 138.8C78.9127 141.573 74.6033 142.96 68.63 142.96C62.6567 142.96 58.326 141.573 55.638 138.8ZM65.43 121.072V133.616H67.414C68.95 133.616 70.0593 133.467 70.742 133.168C71.4673 132.827 71.83 132.08 71.83 130.928V118.384H69.846C68.31 118.384 67.1793 118.555 66.454 118.896C65.7713 119.195 65.43 119.92 65.43 121.072ZM90.7 142V111.6L103.5 110V142H90.7ZM91.404 107.952C90.4653 107.227 89.996 105.904 89.996 103.984C89.996 102.064 90.4653 100.72 91.404 99.952C92.3853 99.184 94.284 98.8 97.1 98.8C99.9587 98.8 101.857 99.184 102.796 99.952C103.777 100.72 104.268 102.064 104.268 103.984C104.268 105.904 103.777 107.227 102.796 107.952C101.857 108.677 99.9587 109.04 97.1 109.04C94.284 109.04 92.3853 108.677 91.404 107.952ZM116.288 110L119.488 113.2C123.456 110.427 127.722 109.04 132.288 109.04C135.274 109.04 137.621 109.701 139.328 111.024C141.034 112.304 141.888 114.096 141.888 116.4V142H129.088V119.6H127.104C125.653 119.6 124.544 119.771 123.776 120.112C123.05 120.411 122.688 121.051 122.688 122.032V142H109.888V110H116.288Z" fill="black"/>
<path d="M159.79 102V132.016H164.334C165.955 132.016 167.065 131.824 167.662 131.44C168.259 131.013 168.558 130.075 168.558 128.624V102H181.358V124.464C181.358 128.091 181.123 131.013 180.654 133.232C180.185 135.451 179.31 137.328 178.03 138.864C176.75 140.4 175.001 141.467 172.782 142.064C170.563 142.661 167.683 142.96 164.142 142.96C160.601 142.96 157.721 142.661 155.502 142.064C153.326 141.467 151.598 140.4 150.318 138.864C149.038 137.328 148.163 135.451 147.694 133.232C147.225 131.013 146.99 128.091 146.99 124.464V102H159.79ZM186.825 110H193.225L195.593 113.2C197.47 110.427 200.948 109.04 206.025 109.04C208.628 109.04 210.868 109.531 212.745 110.512C214.622 111.493 216.052 112.837 217.033 114.544C218.868 117.744 219.785 121.563 219.785 126C219.785 131.419 218.612 135.515 216.265 138.288C215.326 139.355 214.068 140.251 212.489 140.976C210.91 141.659 209.076 142 206.985 142H199.625V151.6L186.825 152.56V110ZM199.625 120.752V133.616H201.609C203.145 133.616 204.254 133.467 204.937 133.168C205.662 132.827 206.025 132.08 206.025 130.928V118.384H204.041C203.102 118.384 202.356 118.427 201.801 118.512C201.246 118.597 200.756 118.832 200.329 119.216C199.902 119.557 199.668 120.069 199.625 120.752Z" fill="black"/>
</svg>
